Coordinates
version=1
nRows=9
nColumns=42
inDegrees=yes

Units are S.I. units (second, meters, Newtons, ...)
If the header above contains a line with 'inDegrees', this indicates whether rotational values are in degrees (yes) or radians (no).

endheader
time	pelvis_tilt	pelvis_list	pelvis_rotation	pelvis_tx	pelvis_ty	pelvis_tz	hip_flexion_r	hip_adduction_r	hip_rotation_r	knee_angle_r	knee_adduction_r	knee_angle_r_beta	ankle_angle_r	subtalar_angle_r	mtp_angle_r	hip_flexion_l	hip_adduction_l	hip_rotation_l	knee_angle_l	knee_adduction_l	knee_angle_l_beta	ankle_angle_l	subtalar_angle_l	mtp_angle_l	lumbar_extension	lumbar_bending	lumbar_rotation	arm_flex_r	arm_add_r	arm_rot_r	elbow_flex_r	pro_sup_r	wrist_flex_r	wrist_dev_r	arm_flex_l	arm_add_l	arm_rot_l	elbow_flex_l	pro_sup_l	wrist_flex_l	wrist_dev_l
      0.50000000	      6.36192530	     -1.31508030	      5.10208931	     -1.06955005	      0.88367126	     -0.15943503	     -0.36359969	      2.36731607	    -20.28320969	     25.15731021	     -1.63526710	      0.43907789	     21.83329720	     30.99516722	     -9.54704969	     10.33532097	     -2.20899923	      4.38658586	     56.71249341	     -3.21103151	      0.98981974	      4.66255100	     -6.54676523	     -9.54704969	    -29.98994716	      6.84937379	     -2.89458190	      7.74032747	    -13.59147700	    -12.69326490	     43.59658933	     90.00000001	      0.00000000	      0.00000000	     17.21492858	     -8.48434577	     30.70603926	     54.43526350	     90.00000001	      0.00000000	      0.00000000
      0.51000000	      6.33476149	     -1.29593873	      5.05862549	     -1.06720917	      0.88364904	     -0.15887918	     -0.53113620	      2.35490817	    -20.24068240	     25.18310091	     -1.54570933	      0.43952803	     21.77097511	     30.74409565	     -9.52781160	     11.04093531	     -2.17714888	      4.26728724	     56.52560831	     -3.08019219	      0.98655798	      4.72808857	     -6.36520340	     -9.52781160	    -29.98447076	      6.78834251	     -2.85619456	      7.75849208	    -13.57178634	    -12.63944136	     43.70327001	     90.00000001	      0.00000000	      0.00000000	     17.41360723	     -8.41621059	     30.63640401	     54.57055574	     90.00000001	      0.00000000	      0.00000000
      0.52000000	      6.27600939	     -1.28574550	      5.23219086	     -1.06464149	      0.88356776	     -0.15873998	     -0.89372220	      2.37864740	    -20.27360248	     24.74705664	     -1.35349504	      0.43191762	     21.96864222	     30.86227283	     -9.51388870	     11.79296945	     -2.04279207	      4.45038049	     56.37294501	     -2.99672227	      0.98389350	      4.97070954	     -6.17962039	     -9.51388870	    -29.85877508	      6.83459908	     -2.99956940	      7.69538881	    -13.56106414	    -12.58254396	     43.74173353	     90.00000001	      0.00000000	      0.00000000	     17.51923094	     -8.39743077	     30.74831153	     54.61148207	     90.00000001	      0.00000000	      0.00000000
      0.53000000	      6.20481672	     -1.45014920	      5.39119540	     -1.06238320	      0.88338677	     -0.15835146	     -1.11942133	      2.61352083	    -20.29952341	     24.45585984	     -1.17641555	      0.42683528	     21.94690540	     30.79314950	     -9.44907388	     12.64507122	     -2.21103701	      4.84354501	     56.35251205	     -2.67085614	      0.98353688	      5.47894646	     -5.20334333	     -9.44907388	    -29.77340673	      7.02867081	     -3.05933506	      7.65206238	    -13.54905133	    -12.32957376	     43.98873345	     90.00000001	      0.00000000	      0.00000000	     17.67402576	     -8.42379255	     30.93101225	     54.81114657	     90.00000001	      0.00000000	      0.00000000
      0.54000000	      6.16956531	     -1.40010725	      5.49157945	     -1.05985543	      0.88331080	     -0.15818276	     -1.39017666	      2.60151295	    -20.30302355	     24.26783898	     -1.11185008	      0.42355369	     22.02634676	     30.72273120	     -9.43108769	     13.34671279	     -2.11734649	      4.81318963	     56.17494599	     -2.63438133	      0.98043776	      5.60165196	     -4.99465971	     -9.43108769	    -29.68776894	      7.01317957	     -3.15467877	      7.58211541	    -13.58043353	    -12.28117333	     44.03137759	     90.00000001	      0.00000000	      0.00000000	     17.80829437	     -8.42536923	     30.92539615	     54.84098041	     90.00000001	      0.00000000	      0.00000000
      0.55000000	      6.13810361	     -1.37168563	      5.59617405	     -1.05736804	      0.88322861	     -0.15798340	     -1.66839822	      2.60478867	    -20.32633149	     24.04786100	     -0.98644897	      0.41971435	     22.12620102	     30.68400559	     -9.41315305	     14.03398724	     -2.02185000	      4.90240113	     56.00361906	     -2.60002300	      0.97744755	      5.72767018	     -4.66226029	     -9.41315305	    -29.60534815	      7.00405555	     -3.24999637	      7.53680774	    -13.56895537	    -12.20522582	     44.12177350	     90.00000001	      0.00000000	      0.00000000	     17.90522570	     -8.41697842	     30.94302189	     54.86073212	     90.00000001	      0.00000000	      0.00000000
      0.56000000	      6.11499192	     -1.34732931	      5.72753550	     -1.05492267	      0.88316467	     -0.15783523	     -1.93855037	      2.62009762	    -20.33844440	     23.85780692	     -0.88077391	      0.41639728	     22.20921283	     30.63940085	     -9.39298866	     14.69971947	     -1.94655372	      4.99947611	     55.81238590	     -2.56005340	      0.97410990	      5.88525143	     -4.21759335	     -9.39298866	    -29.54562144	      7.02053352	     -3.36357726	      7.47965563	    -13.55503541	    -12.10440272	     44.25524523	     90.00000001	      0.00000000	      0.00000000	     18.00912262	     -8.42943344	     30.94972141	     54.86623523	     90.00000001	      0.00000000	      0.00000000
      0.57000000	      6.11759758	     -1.35257254	      5.87590806	     -1.05259383	      0.88312634	     -0.15773005	     -2.22755697	      2.67012732	    -20.34542649	     23.67953486	     -0.76972702	      0.41328585	     22.26860785	     30.61024180	     -9.35657644	     15.35428203	     -1.91200157	      5.09272405	     55.62016027	     -2.56244564	      0.97075493	      6.20166906	     -3.32938473	     -9.35657644	    -29.53719182	      7.08353661	     -3.50262824	      7.40099478	    -13.54521198	    -11.88570919	     44.51980363	     90.00000001	      0.00000000	      0.00000000	     18.16928471	     -8.47624952	     30.93946593	     54.84497959	     90.00000001	      0.00000000	      0.00000000
      0.58000000	      6.10554061	     -1.32594891	      5.84263146	     -1.05025121	      0.88305209	     -0.15736288	     -2.36333349	      2.66679140	    -20.28056875	     23.78285264	     -0.73483035	      0.41508908	     22.18622356	     30.35159897	     -9.33848206	     15.96898502	     -1.93863521	      4.96083315	     55.38314296	     -2.51130179	      0.96661819	      6.25757688	     -3.12159135	     -9.33848206	    -29.52950903	      7.02012859	     -3.45939784	      7.36156053	    -13.52983233	    -11.82229616	     44.62607042	     90.00000001	      0.00000000	      0.00000000	     18.28422613	     -8.49500437	     30.84046250	     54.92469162	     90.00000001	      0.00000000	      0.00000000
